<?xml version="1.0" encoding="UTF-8"?><svg id="Layer_1" xmlns="http://www.w3.org/2000/svg" xmlns:xlink="http://www.w3.org/1999/xlink" viewBox="0 0 1920 1080"><defs><clipPath id="clippath"><rect x="0" y="223" width="517.89" height="528.13" fill="none"/></clipPath><clipPath id="clippath-1"><rect x="0" y="223" width="517.89" height="528.13" fill="none"/></clipPath><clipPath id="clippath-2"><rect x="0" y="-305.13" width="517.89" height="528.13" fill="none"/></clipPath><clipPath id="clippath-3"><rect x="0" y="-305.13" width="517.89" height="528.13" fill="none"/></clipPath><pattern id="newpatternpancake" x="0" y="0" width="517.89" height="528.13" patternUnits="userSpaceOnUse" viewBox="0 0 517.89 528.13"><rect width="517.89" height="528.13" fill="none"/><g id="Artwork_1"><g clip-path="url(#clippath)"><g clip-path="url(#clippath-1)"><path d="M511.6,396.55c-3.15-2.43-8.51,3.57-11.52,7.26-7.08,8.51-16.71,16.65-28.54,24.05-42.42,26.07-97.36,38.49-149.24,44.19-91.53,10.21-246.09-1.45-305.32-69.14C3.46,385.17.21,407.83,0,417.6c-.18,15.76,5.38,27.98,14.36,40.36,81.5,111.65,446.31,112.28,500.75-21.87,3.61-10.67,4.84-31.32-3.38-39.47l-.13-.08Z" fill="#e5e8ea"/><path d="M511.6,502.43c-3.15-2.43-8.51,3.57-11.52,7.26-7.08,8.51-16.71,16.65-28.54,24.05-42.42,26.07-97.36,38.49-149.24,44.19-91.53,10.21-246.09-1.45-305.32-69.14C3.46,491.05.21,513.71,0,523.48c-.18,15.76,5.38,27.98,14.36,40.36,81.5,111.65,446.31,112.28,500.75-21.87,3.61-10.67,4.84-31.32-3.38-39.47l-.13-.08Z" fill="#e5e8ea"/><path d="M511.6,608.31c-3.15-2.43-8.51,3.57-11.52,7.26-7.08,8.51-16.71,16.64-28.54,24.05-42.42,26.07-97.36,38.49-149.24,44.19-91.53,10.21-246.09-1.45-305.32-69.14C3.46,596.93.21,619.59,0,629.36c-.18,15.76,5.38,27.98,14.36,40.36,81.5,111.65,446.31,112.28,500.75-21.87,3.61-10.67,4.84-31.32-3.38-39.47l-.13-.08Z" fill="#e5e8ea"/><path d="M513.55,328.24c0,58.12-113.99,105.24-254.6,105.24S4.35,386.37,4.35,328.24s113.99-105.24,254.6-105.24,254.6,47.12,254.6,105.24" fill="#e5e8ea"/></g></g></g><g id="Artwork_1-2"><g clip-path="url(#clippath-2)"><g clip-path="url(#clippath-3)"><path d="M511.6-131.58c-3.15-2.43-8.51,3.57-11.52,7.26-7.08,8.51-16.71,16.65-28.54,24.05-42.42,26.07-97.36,38.49-149.24,44.19-91.53,10.21-246.09-1.45-305.32-69.14C3.46-142.96.21-120.29,0-110.53c-.18,15.76,5.38,27.98,14.36,40.36,81.5,111.65,446.31,112.28,500.75-21.87,3.61-10.67,4.84-31.32-3.38-39.47l-.13-.08Z" fill="#e5e8ea"/><path d="M511.6-25.7c-3.15-2.43-8.51,3.57-11.52,7.26-7.08,8.51-16.71,16.65-28.54,24.05-42.42,26.07-97.36,38.49-149.24,44.19-91.53,10.21-246.09-1.45-305.32-69.14C3.46-37.08.21-14.41,0-4.65c-.18,15.76,5.38,27.98,14.36,40.36,81.5,111.65,446.31,112.28,500.75-21.87,3.61-10.67,4.84-31.32-3.38-39.47l-.13-.08Z" fill="#e5e8ea"/><path d="M511.6,80.18c-3.15-2.43-8.51,3.57-11.52,7.26-7.08,8.51-16.71,16.64-28.54,24.05-42.42,26.07-97.36,38.49-149.24,44.19-91.53,10.21-246.09-1.45-305.32-69.14C3.46,68.8.21,91.47,0,101.23c-.18,15.76,5.38,27.98,14.36,40.36,81.5,111.65,446.31,112.28,500.75-21.87,3.61-10.67,4.84-31.32-3.38-39.47l-.13-.08Z" fill="#e5e8ea"/></g></g></g></pattern></defs><rect width="1920" height="1080" fill="url(#newpatternpancake)"/></svg>