<?xml version="1.0" encoding="UTF-8"?><svg id="Layer_1" xmlns="http://www.w3.org/2000/svg" xmlns:xlink="http://www.w3.org/1999/xlink" viewBox="0 0 1920 1080"><defs><clipPath id="clippath"><rect x="667.89" y="992.19" width="517.89" height="528.13" fill="none"/></clipPath><clipPath id="clippath-1"><rect x="667.89" y="992.19" width="517.89" height="528.13" fill="none"/></clipPath><clipPath id="clippath-2"><rect x="50" y="992.19" width="517.89" height="528.13" fill="none"/></clipPath><clipPath id="clippath-3"><rect x="50" y="992.19" width="517.89" height="528.13" fill="none"/></clipPath><clipPath id="clippath-4"><rect x="976.84" y="364.06" width="517.89" height="528.13" fill="none"/></clipPath><clipPath id="clippath-5"><rect x="976.84" y="364.06" width="517.89" height="528.13" fill="none"/></clipPath><clipPath id="clippath-6"><rect x="358.95" y="364.06" width="517.89" height="528.13" fill="none"/></clipPath><clipPath id="clippath-7"><rect x="358.95" y="364.06" width="517.89" height="528.13" fill="none"/></clipPath><clipPath id="clippath-8"><rect x="-258.95" y="364.06" width="517.89" height="528.13" fill="none"/></clipPath><clipPath id="clippath-9"><rect x="-258.95" y="364.06" width="517.89" height="528.13" fill="none"/></clipPath><clipPath id="clippath-10"><rect x="667.89" y="-264.06" width="517.89" height="528.13" fill="none"/></clipPath><clipPath id="clippath-11"><rect x="667.89" y="-264.06" width="517.89" height="528.13" fill="none"/></clipPath><clipPath id="clippath-12"><rect x="50" y="-264.06" width="517.89" height="528.13" fill="none"/></clipPath><clipPath id="clippath-13"><rect x="50" y="-264.06" width="517.89" height="528.13" fill="none"/></clipPath><pattern id="newpatternpancake" x="0" y="0" width="1235.79" height="1256.26" patternTransform="translate(-6615.89 -7023.74) scale(.08)" patternUnits="userSpaceOnUse" viewBox="0 0 1235.79 1256.26"><rect width="1235.79" height="1256.26" fill="none"/><g id="Artwork_1"><g clip-path="url(#clippath)"><g clip-path="url(#clippath-1)"><path d="M1179.49,1165.74c-3.15-2.43-8.51,3.57-11.52,7.26-7.08,8.51-16.71,16.65-28.54,24.05-42.42,26.07-97.36,38.49-149.24,44.19-91.53,10.21-246.09-1.45-305.32-69.14-13.52-17.74-16.78,4.92-16.98,14.69-.18,15.76,5.38,27.98,14.36,40.36,81.5,111.65,446.31,112.28,500.75-21.87,3.61-10.67,4.84-31.32-3.38-39.47l-.13-.08Z" fill="#e5e8ea"/><path d="M1181.44,1097.44c0,58.12-113.99,105.24-254.6,105.24s-254.6-47.12-254.6-105.24,113.99-105.24,254.6-105.24,254.6,47.12,254.6,105.24" fill="#e5e8ea"/></g></g></g><g id="Artwork_1-2"><g clip-path="url(#clippath-2)"><g clip-path="url(#clippath-3)"><path d="M561.6,1165.74c-3.15-2.43-8.51,3.57-11.52,7.26-7.08,8.51-16.71,16.65-28.54,24.05-42.42,26.07-97.36,38.49-149.24,44.19-91.53,10.21-246.09-1.45-305.32-69.14-13.52-17.74-16.78,4.92-16.98,14.69-.18,15.76,5.38,27.98,14.36,40.36,81.5,111.65,446.31,112.28,500.75-21.87,3.61-10.67,4.84-31.32-3.38-39.47l-.13-.08Z" fill="#e5e8ea"/><path d="M563.55,1097.44c0,58.12-113.99,105.24-254.6,105.24s-254.6-47.12-254.6-105.24,113.99-105.24,254.6-105.24,254.6,47.12,254.6,105.24" fill="#e5e8ea"/></g></g></g><g id="Artwork_1-3"><g clip-path="url(#clippath-4)"><g clip-path="url(#clippath-5)"><path d="M1488.44,537.61c-3.15-2.43-8.51,3.57-11.52,7.26-7.08,8.51-16.71,16.65-28.54,24.05-42.42,26.07-97.36,38.49-149.24,44.19-91.53,10.21-246.09-1.45-305.32-69.14-13.52-17.74-16.78,4.92-16.98,14.69-.18,15.76,5.38,27.98,14.36,40.36,81.5,111.65,446.31,112.28,500.75-21.87,3.61-10.67,4.84-31.32-3.38-39.47l-.13-.08Z" fill="#e5e8ea"/><path d="M1488.44,643.49c-3.15-2.43-8.51,3.57-11.52,7.26-7.08,8.51-16.71,16.65-28.54,24.05-42.42,26.07-97.36,38.49-149.24,44.19-91.53,10.21-246.09-1.45-305.32-69.14-13.52-17.74-16.78,4.92-16.98,14.69-.18,15.76,5.38,27.98,14.36,40.36,81.5,111.65,446.31,112.28,500.75-21.87,3.61-10.67,4.84-31.32-3.38-39.47l-.13-.08Z" fill="#e5e8ea"/><path d="M1488.44,749.37c-3.15-2.43-8.51,3.57-11.52,7.26-7.08,8.51-16.71,16.64-28.54,24.05-42.42,26.07-97.36,38.49-149.24,44.19-91.53,10.21-246.09-1.45-305.32-69.14-13.52-17.74-16.78,4.92-16.98,14.69-.18,15.76,5.38,27.98,14.36,40.36,81.5,111.65,446.31,112.28,500.75-21.87,3.61-10.67,4.84-31.32-3.38-39.47l-.13-.08Z" fill="#e5e8ea"/><path d="M1490.39,469.31c0,58.12-113.99,105.24-254.6,105.24s-254.6-47.12-254.6-105.24,113.99-105.24,254.6-105.24,254.6,47.12,254.6,105.24" fill="#e5e8ea"/></g></g></g><g id="Artwork_1-4"><g clip-path="url(#clippath-6)"><g clip-path="url(#clippath-7)"><path d="M870.55,537.61c-3.15-2.43-8.51,3.57-11.52,7.26-7.08,8.51-16.71,16.65-28.54,24.05-42.42,26.07-97.36,38.49-149.24,44.19-91.53,10.21-246.09-1.45-305.32-69.14-13.52-17.74-16.78,4.92-16.98,14.69-.18,15.76,5.38,27.98,14.36,40.36,81.5,111.65,446.31,112.28,500.75-21.87,3.61-10.67,4.84-31.32-3.38-39.47l-.13-.08Z" fill="#e5e8ea"/><path d="M870.55,643.49c-3.15-2.43-8.51,3.57-11.52,7.26-7.08,8.51-16.71,16.65-28.54,24.05-42.42,26.07-97.36,38.49-149.24,44.19-91.53,10.21-246.09-1.45-305.32-69.14-13.52-17.74-16.78,4.92-16.98,14.69-.18,15.76,5.38,27.98,14.36,40.36,81.5,111.65,446.31,112.28,500.75-21.87,3.61-10.67,4.84-31.32-3.38-39.47l-.13-.08Z" fill="#e5e8ea"/><path d="M870.55,749.37c-3.15-2.43-8.51,3.57-11.52,7.26-7.08,8.51-16.71,16.64-28.54,24.05-42.42,26.07-97.36,38.49-149.24,44.19-91.53,10.21-246.09-1.45-305.32-69.14-13.52-17.74-16.78,4.92-16.98,14.69-.18,15.76,5.38,27.98,14.36,40.36,81.5,111.65,446.31,112.28,500.75-21.87,3.61-10.67,4.84-31.32-3.38-39.47l-.13-.08Z" fill="#e5e8ea"/><path d="M872.49,469.31c0,58.12-113.99,105.24-254.6,105.24s-254.6-47.12-254.6-105.24,113.99-105.24,254.6-105.24,254.6,47.12,254.6,105.24" fill="#e5e8ea"/></g></g></g><g id="Artwork_1-5"><g clip-path="url(#clippath-8)"><g clip-path="url(#clippath-9)"><path d="M252.65,537.61c-3.15-2.43-8.51,3.57-11.52,7.26-7.08,8.51-16.71,16.65-28.54,24.05-42.42,26.07-97.36,38.49-149.24,44.19-91.53,10.21-246.09-1.45-305.32-69.14-13.52-17.74-16.78,4.92-16.98,14.69-.18,15.76,5.38,27.98,14.36,40.36,81.5,111.65,446.31,112.28,500.75-21.87,3.61-10.67,4.84-31.32-3.38-39.47l-.13-.08Z" fill="#e5e8ea"/><path d="M252.65,643.49c-3.15-2.43-8.51,3.57-11.52,7.26-7.08,8.51-16.71,16.65-28.54,24.05-42.42,26.07-97.36,38.49-149.24,44.19-91.53,10.21-246.09-1.45-305.32-69.14-13.52-17.74-16.78,4.92-16.98,14.69-.18,15.76,5.38,27.98,14.36,40.36,81.5,111.65,446.31,112.28,500.75-21.87,3.61-10.67,4.84-31.32-3.38-39.47l-.13-.08Z" fill="#e5e8ea"/><path d="M252.65,749.37c-3.15-2.43-8.51,3.57-11.52,7.26-7.08,8.51-16.71,16.64-28.54,24.05-42.42,26.07-97.36,38.49-149.24,44.19-91.53,10.21-246.09-1.45-305.32-69.14-13.52-17.74-16.78,4.92-16.98,14.69-.18,15.76,5.38,27.98,14.36,40.36,81.5,111.65,446.31,112.28,500.75-21.87,3.61-10.67,4.84-31.32-3.38-39.47l-.13-.08Z" fill="#e5e8ea"/><path d="M254.6,469.31C254.6,527.43,140.61,574.55,0,574.55s-254.6-47.12-254.6-105.24S-140.61,364.06,0,364.06s254.6,47.12,254.6,105.24" fill="#e5e8ea"/></g></g></g><g id="Artwork_1-6"><g clip-path="url(#clippath-10)"><g clip-path="url(#clippath-11)"><path d="M1179.49-90.52c-3.15-2.43-8.51,3.57-11.52,7.26-7.08,8.51-16.71,16.65-28.54,24.05-42.42,26.07-97.36,38.49-149.24,44.19-91.53,10.21-246.09-1.45-305.32-69.14-13.52-17.74-16.78,4.92-16.98,14.69-.18,15.76,5.38,27.98,14.36,40.36,81.5,111.65,446.31,112.28,500.75-21.87,3.61-10.67,4.84-31.32-3.38-39.47l-.13-.08Z" fill="#e5e8ea"/><path d="M1179.49,15.36c-3.15-2.43-8.51,3.57-11.52,7.26-7.08,8.51-16.71,16.65-28.54,24.05-42.42,26.07-97.36,38.49-149.24,44.19-91.53,10.21-246.09-1.45-305.32-69.14-13.52-17.74-16.78,4.92-16.98,14.69-.18,15.76,5.38,27.98,14.36,40.36,81.5,111.65,446.31,112.28,500.75-21.87,3.61-10.67,4.84-31.32-3.38-39.47l-.13-.08Z" fill="#e5e8ea"/><path d="M1179.49,121.24c-3.15-2.43-8.51,3.57-11.52,7.26-7.08,8.51-16.71,16.64-28.54,24.05-42.42,26.07-97.36,38.49-149.24,44.19-91.53,10.21-246.09-1.45-305.32-69.14-13.52-17.74-16.78,4.92-16.98,14.69-.18,15.76,5.38,27.98,14.36,40.36,81.5,111.65,446.31,112.28,500.75-21.87,3.61-10.67,4.84-31.32-3.38-39.47l-.13-.08Z" fill="#e5e8ea"/></g></g></g><g id="Artwork_1-7"><g clip-path="url(#clippath-12)"><g clip-path="url(#clippath-13)"><path d="M561.6-90.52c-3.15-2.43-8.51,3.57-11.52,7.26-7.08,8.51-16.71,16.65-28.54,24.05-42.42,26.07-97.36,38.49-149.24,44.19-91.53,10.21-246.09-1.45-305.32-69.14-13.52-17.74-16.78,4.92-16.98,14.69-.18,15.76,5.38,27.98,14.36,40.36,81.5,111.65,446.31,112.28,500.75-21.87,3.61-10.67,4.84-31.32-3.38-39.47l-.13-.08Z" fill="#e5e8ea"/><path d="M561.6,15.36c-3.15-2.43-8.51,3.57-11.52,7.26-7.08,8.51-16.71,16.65-28.54,24.05-42.42,26.07-97.36,38.49-149.24,44.19-91.53,10.21-246.09-1.45-305.32-69.14-13.52-17.74-16.78,4.92-16.98,14.69-.18,15.76,5.38,27.98,14.36,40.36,81.5,111.65,446.31,112.28,500.75-21.87,3.61-10.67,4.84-31.32-3.38-39.47l-.13-.08Z" fill="#e5e8ea"/><path d="M561.6,121.24c-3.15-2.43-8.51,3.57-11.52,7.26-7.08,8.51-16.71,16.64-28.54,24.05-42.42,26.07-97.36,38.49-149.24,44.19-91.53,10.21-246.09-1.45-305.32-69.14-13.52-17.74-16.78,4.92-16.98,14.69-.18,15.76,5.38,27.98,14.36,40.36,81.5,111.65,446.31,112.28,500.75-21.87,3.61-10.67,4.84-31.32-3.38-39.47l-.13-.08Z" fill="#e5e8ea"/></g></g></g></pattern></defs><rect width="1920" height="1080" fill="url(#newpatternpancake)"/></svg>