<?xml version="1.0" encoding="UTF-8"?>
<svg id="Layer_1" data-name="Layer 1" xmlns="http://www.w3.org/2000/svg" width="1920" height="1080" xmlns:xlink="http://www.w3.org/1999/xlink" viewBox="0 0 1920 1080">
  <defs>
    <style>
      .cls-1 {
        fill: none;
      }

      .cls-2 {
        fill: url(#brickgrid);
      }

      .cls-3 {
        clip-path: url(#clippath-11);
      }

      .cls-4 {
        clip-path: url(#clippath-10);
      }

      .cls-5 {
        clip-path: url(#clippath-13);
      }

      .cls-6 {
        clip-path: url(#clippath-12);
      }

      .cls-7 {
        clip-path: url(#clippath-1);
      }

      .cls-8 {
        clip-path: url(#clippath-3);
      }

      .cls-9 {
        clip-path: url(#clippath-4);
      }

      .cls-10 {
        clip-path: url(#clippath-2);
      }

      .cls-11 {
        clip-path: url(#clippath-7);
      }

      .cls-12 {
        clip-path: url(#clippath-6);
      }

      .cls-13 {
        clip-path: url(#clippath-9);
      }

      .cls-14 {
        clip-path: url(#clippath-8);
      }

      .cls-15 {
        clip-path: url(#clippath-5);
      }

      .cls-16 {
        fill: #e5e8ea;
      }

      .cls-17 {
        clip-path: url(#clippath);
      }
    </style>
    <clipPath id="clippath">
      <rect class="cls-1" x="532.89" y="812.19" width="517.89" height="528.13"/>
    </clipPath>
    <clipPath id="clippath-1">
      <rect class="cls-1" x="532.89" y="812.19" width="517.89" height="528.13"/>
    </clipPath>
    <clipPath id="clippath-2">
      <rect class="cls-1" x="5" y="812.19" width="517.89" height="528.13"/>
    </clipPath>
    <clipPath id="clippath-3">
      <rect class="cls-1" x="5" y="812.19" width="517.89" height="528.13"/>
    </clipPath>
    <clipPath id="clippath-4">
      <rect class="cls-1" x="796.84" y="274.06" width="517.89" height="528.13"/>
    </clipPath>
    <clipPath id="clippath-5">
      <rect class="cls-1" x="796.84" y="274.06" width="517.89" height="528.13"/>
    </clipPath>
    <clipPath id="clippath-6">
      <rect class="cls-1" x="268.95" y="274.06" width="517.89" height="528.13"/>
    </clipPath>
    <clipPath id="clippath-7">
      <rect class="cls-1" x="268.95" y="274.06" width="517.89" height="528.13"/>
    </clipPath>
    <clipPath id="clippath-8">
      <rect class="cls-1" x="-258.95" y="274.06" width="517.89" height="528.13"/>
    </clipPath>
    <clipPath id="clippath-9">
      <rect class="cls-1" x="-258.95" y="274.06" width="517.89" height="528.13"/>
    </clipPath>
    <clipPath id="clippath-10">
      <rect class="cls-1" x="532.89" y="-264.06" width="517.89" height="528.13"/>
    </clipPath>
    <clipPath id="clippath-11">
      <rect class="cls-1" x="532.89" y="-264.06" width="517.89" height="528.13"/>
    </clipPath>
    <clipPath id="clippath-12">
      <rect class="cls-1" x="5" y="-264.06" width="517.89" height="528.13"/>
    </clipPath>
    <clipPath id="clippath-13">
      <rect class="cls-1" x="5" y="-264.06" width="517.89" height="528.13"/>
    </clipPath>
    <pattern id="brickgrid" x="0" y="0" width="1055.79" height="1076.26" patternTransform="translate(-6848.03 -7236.04) scale(.05)" patternUnits="userSpaceOnUse" viewBox="0 0 1055.79 1076.26">
      <g>
        <rect class="cls-1" width="1055.79" height="1076.26"/>
        <g id="Artwork_1" data-name="Artwork 1">
          <g class="cls-17">
            <g class="cls-7">
              <path class="cls-16" d="M1044.49,985.74c-3.15-2.43-8.51,3.57-11.52,7.26-7.08,8.51-16.71,16.65-28.54,24.05-42.42,26.07-97.36,38.49-149.24,44.19-91.53,10.21-246.09-1.45-305.32-69.14-13.52-17.74-16.78,4.92-16.98,14.69-.18,15.76,5.38,27.98,14.36,40.36,81.5,111.65,446.31,112.28,500.75-21.87,3.61-10.67,4.84-31.32-3.38-39.47l-.13-.08Z"/>
              <path class="cls-16" d="M1046.44,917.44c0,58.12-113.99,105.24-254.6,105.24s-254.6-47.12-254.6-105.24,113.99-105.24,254.6-105.24,254.6,47.12,254.6,105.24"/>
            </g>
          </g>
        </g>
        <g id="Artwork_1-2" data-name="Artwork 1">
          <g class="cls-10">
            <g class="cls-8">
              <path class="cls-16" d="M516.6,985.74c-3.15-2.43-8.51,3.57-11.52,7.26-7.08,8.51-16.71,16.65-28.54,24.05-42.42,26.07-97.36,38.49-149.24,44.19-91.53,10.21-246.09-1.45-305.32-69.14-13.52-17.74-16.78,4.92-16.98,14.69-.18,15.76,5.38,27.98,14.36,40.36,81.5,111.65,446.31,112.28,500.75-21.87,3.61-10.67,4.84-31.32-3.38-39.47l-.13-.08Z"/>
              <path class="cls-16" d="M518.55,917.44c0,58.12-113.99,105.24-254.6,105.24S9.35,975.56,9.35,917.44s113.99-105.24,254.6-105.24,254.6,47.12,254.6,105.24"/>
            </g>
          </g>
        </g>
        <g id="Artwork_1-3" data-name="Artwork 1">
          <g class="cls-9">
            <g class="cls-15">
              <path class="cls-16" d="M1308.44,447.61c-3.15-2.43-8.51,3.57-11.52,7.26-7.08,8.51-16.71,16.65-28.54,24.05-42.42,26.07-97.36,38.49-149.24,44.19-91.53,10.21-246.09-1.45-305.32-69.14-13.52-17.74-16.78,4.92-16.98,14.69-.18,15.76,5.38,27.98,14.36,40.36,81.5,111.65,446.31,112.28,500.75-21.87,3.61-10.67,4.84-31.32-3.38-39.47l-.13-.08Z"/>
              <path class="cls-16" d="M1308.44,553.49c-3.15-2.43-8.51,3.57-11.52,7.26-7.08,8.51-16.71,16.65-28.54,24.05-42.42,26.07-97.36,38.49-149.24,44.19-91.53,10.21-246.09-1.45-305.32-69.14-13.52-17.74-16.78,4.92-16.98,14.69-.18,15.76,5.38,27.98,14.36,40.36,81.5,111.65,446.31,112.28,500.75-21.87,3.61-10.67,4.84-31.32-3.38-39.47l-.13-.08Z"/>
              <path class="cls-16" d="M1308.44,659.37c-3.15-2.43-8.51,3.57-11.52,7.26-7.08,8.51-16.71,16.64-28.54,24.05-42.42,26.07-97.36,38.49-149.24,44.19-91.53,10.21-246.09-1.45-305.32-69.14-13.52-17.74-16.78,4.92-16.98,14.69-.18,15.76,5.38,27.98,14.36,40.36,81.5,111.65,446.31,112.28,500.75-21.87,3.61-10.67,4.84-31.32-3.38-39.47l-.13-.08Z"/>
              <path class="cls-16" d="M1310.39,379.31c0,58.12-113.99,105.24-254.6,105.24s-254.6-47.12-254.6-105.24,113.99-105.24,254.6-105.24,254.6,47.12,254.6,105.24"/>
            </g>
          </g>
        </g>
        <g id="Artwork_1-4" data-name="Artwork 1">
          <g class="cls-12">
            <g class="cls-11">
              <path class="cls-16" d="M780.55,447.61c-3.15-2.43-8.51,3.57-11.52,7.26-7.08,8.51-16.71,16.65-28.54,24.05-42.42,26.07-97.36,38.49-149.24,44.19-91.53,10.21-246.09-1.45-305.32-69.14-13.52-17.74-16.78,4.92-16.98,14.69-.18,15.76,5.38,27.98,14.36,40.36,81.5,111.65,446.31,112.28,500.75-21.87,3.61-10.67,4.84-31.32-3.38-39.47l-.13-.08Z"/>
              <path class="cls-16" d="M780.55,553.49c-3.15-2.43-8.51,3.57-11.52,7.26-7.08,8.51-16.71,16.65-28.54,24.05-42.42,26.07-97.36,38.49-149.24,44.19-91.53,10.21-246.09-1.45-305.32-69.14-13.52-17.74-16.78,4.92-16.98,14.69-.18,15.76,5.38,27.98,14.36,40.36,81.5,111.65,446.31,112.28,500.75-21.87,3.61-10.67,4.84-31.32-3.38-39.47l-.13-.08Z"/>
              <path class="cls-16" d="M780.55,659.37c-3.15-2.43-8.51,3.57-11.52,7.26-7.08,8.51-16.71,16.64-28.54,24.05-42.42,26.07-97.36,38.49-149.24,44.19-91.53,10.21-246.09-1.45-305.32-69.14-13.52-17.74-16.78,4.92-16.98,14.69-.18,15.76,5.38,27.98,14.36,40.36,81.5,111.65,446.31,112.28,500.75-21.87,3.61-10.67,4.84-31.32-3.38-39.47l-.13-.08Z"/>
              <path class="cls-16" d="M782.49,379.31c0,58.12-113.99,105.24-254.6,105.24s-254.6-47.12-254.6-105.24,113.99-105.24,254.6-105.24,254.6,47.12,254.6,105.24"/>
            </g>
          </g>
        </g>
        <g id="Artwork_1-5" data-name="Artwork 1">
          <g class="cls-14">
            <g class="cls-13">
              <path class="cls-16" d="M252.65,447.61c-3.15-2.43-8.51,3.57-11.52,7.26-7.08,8.51-16.71,16.65-28.54,24.05-42.42,26.07-97.36,38.49-149.24,44.19-91.53,10.21-246.09-1.45-305.32-69.14-13.52-17.74-16.78,4.92-16.98,14.69-.18,15.76,5.38,27.98,14.36,40.36,81.5,111.65,446.31,112.28,500.75-21.87,3.61-10.67,4.84-31.32-3.38-39.47l-.13-.08Z"/>
              <path class="cls-16" d="M252.65,553.49c-3.15-2.43-8.51,3.57-11.52,7.26-7.08,8.51-16.71,16.65-28.54,24.05-42.42,26.07-97.36,38.49-149.24,44.19-91.53,10.21-246.09-1.45-305.32-69.14-13.52-17.74-16.78,4.92-16.98,14.69-.18,15.76,5.38,27.98,14.36,40.36,81.5,111.65,446.31,112.28,500.75-21.87,3.61-10.67,4.84-31.32-3.38-39.47l-.13-.08Z"/>
              <path class="cls-16" d="M252.65,659.37c-3.15-2.43-8.51,3.57-11.52,7.26-7.08,8.51-16.71,16.64-28.54,24.05-42.42,26.07-97.36,38.49-149.24,44.19-91.53,10.21-246.09-1.45-305.32-69.14-13.52-17.74-16.78,4.92-16.98,14.69-.18,15.76,5.38,27.98,14.36,40.36,81.5,111.65,446.31,112.28,500.75-21.87,3.61-10.67,4.84-31.32-3.38-39.47l-.13-.08Z"/>
              <path class="cls-16" d="M254.6,379.31C254.6,437.43,140.61,484.55,0,484.55s-254.6-47.12-254.6-105.24S-140.61,274.06,0,274.06s254.6,47.12,254.6,105.24"/>
            </g>
          </g>
        </g>
        <g id="Artwork_1-6" data-name="Artwork 1">
          <g class="cls-4">
            <g class="cls-3">
              <path class="cls-16" d="M1044.49-90.52c-3.15-2.43-8.51,3.57-11.52,7.26-7.08,8.51-16.71,16.65-28.54,24.05-42.42,26.07-97.36,38.49-149.24,44.19-91.53,10.21-246.09-1.45-305.32-69.14-13.52-17.74-16.78,4.92-16.98,14.69-.18,15.76,5.38,27.98,14.36,40.36,81.5,111.65,446.31,112.28,500.75-21.87,3.61-10.67,4.84-31.32-3.38-39.47l-.13-.08Z"/>
              <path class="cls-16" d="M1044.49,15.36c-3.15-2.43-8.51,3.57-11.52,7.26-7.08,8.51-16.71,16.65-28.54,24.05-42.42,26.07-97.36,38.49-149.24,44.19-91.53,10.21-246.09-1.45-305.32-69.14-13.52-17.74-16.78,4.92-16.98,14.69-.18,15.76,5.38,27.98,14.36,40.36,81.5,111.65,446.31,112.28,500.75-21.87,3.61-10.67,4.84-31.32-3.38-39.47l-.13-.08Z"/>
              <path class="cls-16" d="M1044.49,121.24c-3.15-2.43-8.51,3.57-11.52,7.26-7.08,8.51-16.71,16.64-28.54,24.05-42.42,26.07-97.36,38.49-149.24,44.19-91.53,10.21-246.09-1.45-305.32-69.14-13.52-17.74-16.78,4.92-16.98,14.69-.18,15.76,5.38,27.98,14.36,40.36,81.5,111.65,446.31,112.28,500.75-21.87,3.61-10.67,4.84-31.32-3.38-39.47l-.13-.08Z"/>
            </g>
          </g>
        </g>
        <g id="Artwork_1-7" data-name="Artwork 1">
          <g class="cls-6">
            <g class="cls-5">
              <path class="cls-16" d="M516.6-90.52c-3.15-2.43-8.51,3.57-11.52,7.26-7.08,8.51-16.71,16.65-28.54,24.05-42.42,26.07-97.36,38.49-149.24,44.19C235.77-4.8,81.21-16.47,21.99-84.15c-13.52-17.74-16.78,4.92-16.98,14.69-.18,15.76,5.38,27.98,14.36,40.36,81.5,111.65,446.31,112.28,500.75-21.87,3.61-10.67,4.84-31.32-3.38-39.47l-.13-.08Z"/>
              <path class="cls-16" d="M516.6,15.36c-3.15-2.43-8.51,3.57-11.52,7.26-7.08,8.51-16.71,16.65-28.54,24.05-42.42,26.07-97.36,38.49-149.24,44.19-91.53,10.21-246.09-1.45-305.32-69.14C8.46,3.99,5.21,26.65,5,36.42c-.18,15.76,5.38,27.98,14.36,40.36,81.5,111.65,446.31,112.28,500.75-21.87,3.61-10.67,4.84-31.32-3.38-39.47l-.13-.08Z"/>
              <path class="cls-16" d="M516.6,121.24c-3.15-2.43-8.51,3.57-11.52,7.26-7.08,8.51-16.71,16.64-28.54,24.05-42.42,26.07-97.36,38.49-149.24,44.19-91.53,10.21-246.09-1.45-305.32-69.14-13.52-17.74-16.78,4.92-16.98,14.69-.18,15.76,5.38,27.98,14.36,40.36,81.5,111.65,446.31,112.28,500.75-21.87,3.61-10.67,4.84-31.32-3.38-39.47l-.13-.08Z"/>
            </g>
          </g>
        </g>
      </g>
    </pattern>
  </defs>
  <rect class="cls-2" width="1920" height="1080"/>
</svg>