<?xml version="1.0" encoding="UTF-8"?><svg id="Layer_1" xmlns="http://www.w3.org/2000/svg" xmlns:xlink="http://www.w3.org/1999/xlink" viewBox="0 0 1439.2 915.19"><defs><clipPath id="clippath"><rect x="2603.68" y="756.88" width="517.89" height="528.13" fill="none"/></clipPath><clipPath id="clippath-1"><rect x="2603.68" y="756.88" width="517.89" height="528.13" fill="none"/></clipPath><clipPath id="clippath-2"><rect x="3421.57" y="385.63" width="517.89" height="528.13" fill="none"/></clipPath><clipPath id="clippath-3"><rect x="3421.57" y="385.63" width="517.89" height="528.13" fill="none"/></clipPath><clipPath id="clippath-4"><rect x="2603.68" y="-171.25" width="517.89" height="528.13" fill="none"/></clipPath><clipPath id="clippath-5"><rect x="2603.68" y="-171.25" width="517.89" height="528.13" fill="none"/></clipPath><clipPath id="clippath-6"><rect x="1785.79" y="200" width="517.89" height="528.13" fill="none"/></clipPath><clipPath id="clippath-7"><rect x="1785.79" y="200" width="517.89" height="528.13" fill="none"/></clipPath><clipPath id="clippath-8"><rect x="967.89" y="571.25" width="517.89" height="528.13" fill="none"/></clipPath><clipPath id="clippath-9"><rect x="967.89" y="571.25" width="517.89" height="528.13" fill="none"/></clipPath><clipPath id="clippath-10"><rect x="150" y="14.37" width="517.89" height="528.13" fill="none"/></clipPath><clipPath id="clippath-11"><rect x="150" y="14.37" width="517.89" height="528.13" fill="none"/></clipPath><clipPath id="clippath-12"><rect x="967.89" y="-356.88" width="517.89" height="528.13" fill="none"/></clipPath><clipPath id="clippath-13"><rect x="967.89" y="-356.88" width="517.89" height="528.13" fill="none"/></clipPath><pattern id="New_Pattern" x="0" y="0" width="4089.46" height="928.13" patternTransform="translate(-6881.81 -7084.88) scale(.08)" patternUnits="userSpaceOnUse" viewBox="0 0 4089.46 928.13"><rect width="4089.46" height="928.13" fill="none"/><g id="Artwork_1"><g clip-path="url(#clippath)"><g clip-path="url(#clippath-1)"><path d="M3117.23,862.12c0,58.12-113.99,105.24-254.6,105.24s-254.6-47.12-254.6-105.24,113.99-105.24,254.6-105.24,254.6,47.12,254.6,105.24" fill="#e5e8ea"/></g></g></g><g id="Artwork_1-2"><g clip-path="url(#clippath-2)"><g clip-path="url(#clippath-3)"><path d="M3933.17,559.17c-3.15-2.43-8.51,3.57-11.52,7.26-7.08,8.51-16.71,16.65-28.54,24.05-42.42,26.07-97.36,38.49-149.24,44.19-91.53,10.21-246.09-1.45-305.32-69.14-13.52-17.74-16.78,4.92-16.98,14.69-.18,15.76,5.38,27.98,14.36,40.36,81.5,111.65,446.31,112.28,500.75-21.87,3.61-10.67,4.84-31.32-3.38-39.47l-.13-.08Z" fill="#e5e8ea"/><path d="M3933.17,665.05c-3.15-2.43-8.51,3.57-11.52,7.26-7.08,8.51-16.71,16.65-28.54,24.05-42.42,26.07-97.36,38.49-149.24,44.19-91.53,10.21-246.09-1.45-305.32-69.14-13.52-17.74-16.78,4.92-16.98,14.69-.18,15.76,5.38,27.98,14.36,40.36,81.5,111.65,446.31,112.28,500.75-21.87,3.61-10.67,4.84-31.32-3.38-39.47l-.13-.08Z" fill="#e5e8ea"/><path d="M3933.17,770.93c-3.15-2.43-8.51,3.57-11.52,7.26-7.08,8.51-16.71,16.64-28.54,24.05-42.42,26.07-97.36,38.49-149.24,44.19-91.53,10.21-246.09-1.45-305.32-69.14-13.52-17.74-16.78,4.92-16.98,14.69-.18,15.76,5.38,27.98,14.36,40.36,81.5,111.65,446.31,112.28,500.75-21.87,3.61-10.67,4.84-31.32-3.38-39.47l-.13-.08Z" fill="#e5e8ea"/><path d="M3935.12,490.87c0,58.12-113.99,105.24-254.6,105.24s-254.6-47.12-254.6-105.24,113.99-105.24,254.6-105.24,254.6,47.12,254.6,105.24" fill="#e5e8ea"/></g></g></g><g id="Artwork_1-3"><g clip-path="url(#clippath-4)"><g clip-path="url(#clippath-5)"><path d="M3115.28,2.29c-3.15-2.43-8.51,3.57-11.52,7.26-7.08,8.51-16.71,16.65-28.54,24.05-42.42,26.07-97.36,38.49-149.24,44.19-91.53,10.21-246.09-1.45-305.32-69.14-13.52-17.74-16.78,4.92-16.98,14.69-.18,15.76,5.38,27.98,14.36,40.36,81.5,111.65,446.31,112.28,500.75-21.87,3.61-10.67,4.84-31.32-3.38-39.47l-.13-.08Z" fill="#e5e8ea"/><path d="M3115.28,108.17c-3.15-2.43-8.51,3.57-11.52,7.26-7.08,8.51-16.71,16.65-28.54,24.05-42.42,26.07-97.36,38.49-149.24,44.19-91.53,10.21-246.09-1.45-305.32-69.14-13.52-17.74-16.78,4.92-16.98,14.69-.18,15.76,5.38,27.98,14.36,40.36,81.5,111.65,446.31,112.28,500.75-21.87,3.61-10.67,4.84-31.32-3.38-39.47l-.13-.08Z" fill="#e5e8ea"/><path d="M3115.28,214.05c-3.15-2.43-8.51,3.57-11.52,7.26-7.08,8.51-16.71,16.64-28.54,24.05-42.42,26.07-97.36,38.49-149.24,44.19-91.53,10.21-246.09-1.45-305.32-69.14-13.52-17.74-16.78,4.92-16.98,14.69-.18,15.76,5.38,27.98,14.36,40.36,81.5,111.65,446.31,112.28,500.75-21.87,3.61-10.67,4.84-31.32-3.38-39.47l-.13-.08Z" fill="#e5e8ea"/><path d="M3117.23-66.01c0,58.12-113.99,105.24-254.6,105.24s-254.6-47.12-254.6-105.24,113.99-105.24,254.6-105.24,254.6,47.12,254.6,105.24" fill="#e5e8ea"/></g></g></g><g id="Artwork_1-4"><g clip-path="url(#clippath-6)"><g clip-path="url(#clippath-7)"><path d="M2297.39,373.55c-3.15-2.43-8.51,3.57-11.52,7.26-7.08,8.51-16.71,16.65-28.54,24.05-42.42,26.07-97.36,38.49-149.24,44.19-91.53,10.21-246.09-1.45-305.32-69.14-13.52-17.74-16.78,4.92-16.98,14.69-.18,15.76,5.38,27.98,14.36,40.36,81.5,111.65,446.31,112.28,500.75-21.87,3.61-10.67,4.84-31.32-3.38-39.47l-.13-.08Z" fill="#e5e8ea"/><path d="M2297.39,479.43c-3.15-2.43-8.51,3.57-11.52,7.26-7.08,8.51-16.71,16.65-28.54,24.05-42.42,26.07-97.36,38.49-149.24,44.19-91.53,10.21-246.09-1.45-305.32-69.14-13.52-17.74-16.78,4.92-16.98,14.69-.18,15.76,5.38,27.98,14.36,40.36,81.5,111.65,446.31,112.28,500.75-21.87,3.61-10.67,4.84-31.32-3.38-39.47l-.13-.08Z" fill="#e5e8ea"/><path d="M2297.39,585.31c-3.15-2.43-8.51,3.57-11.52,7.26-7.08,8.51-16.71,16.64-28.54,24.05-42.42,26.07-97.36,38.49-149.24,44.19-91.53,10.21-246.09-1.45-305.32-69.14-13.52-17.74-16.78,4.92-16.98,14.69-.18,15.76,5.38,27.98,14.36,40.36,81.5,111.65,446.31,112.28,500.75-21.87,3.61-10.67,4.84-31.32-3.38-39.47l-.13-.08Z" fill="#e5e8ea"/><path d="M2299.33,305.24c0,58.12-113.99,105.24-254.6,105.24s-254.6-47.12-254.6-105.24,113.99-105.24,254.6-105.24,254.6,47.12,254.6,105.24" fill="#e5e8ea"/></g></g></g><g id="Artwork_1-5"><g clip-path="url(#clippath-8)"><g clip-path="url(#clippath-9)"><path d="M1479.49,744.8c-3.15-2.43-8.51,3.57-11.52,7.26-7.08,8.51-16.71,16.65-28.54,24.05-42.42,26.07-97.36,38.49-149.24,44.19-91.53,10.21-246.09-1.45-305.32-69.14-13.52-17.74-16.78,4.92-16.98,14.69-.18,15.76,5.38,27.98,14.36,40.36,81.5,111.65,446.31,112.28,500.75-21.87,3.61-10.67,4.84-31.32-3.38-39.47l-.13-.08Z" fill="#e5e8ea"/><path d="M1479.49,850.68c-3.15-2.43-8.51,3.57-11.52,7.26-7.08,8.51-16.71,16.65-28.54,24.05-42.42,26.07-97.36,38.49-149.24,44.19-91.53,10.21-246.09-1.45-305.32-69.14-13.52-17.74-16.78,4.92-16.98,14.69-.18,15.76,5.38,27.98,14.36,40.36,81.5,111.65,446.31,112.28,500.75-21.87,3.61-10.67,4.84-31.32-3.38-39.47l-.13-.08Z" fill="#e5e8ea"/><path d="M1481.44,676.5c0,58.12-113.99,105.24-254.6,105.24s-254.6-47.12-254.6-105.24,113.99-105.24,254.6-105.24,254.6,47.12,254.6,105.24" fill="#e5e8ea"/></g></g></g><g id="Artwork_1-6"><g clip-path="url(#clippath-10)"><g clip-path="url(#clippath-11)"><path d="M661.6,187.92c-3.15-2.43-8.51,3.57-11.52,7.26-7.08,8.51-16.71,16.65-28.54,24.05-42.42,26.07-97.36,38.49-149.24,44.19-91.53,10.21-246.09-1.45-305.32-69.14-13.52-17.74-16.78,4.92-16.98,14.69-.18,15.76,5.38,27.98,14.36,40.36,81.5,111.65,446.31,112.28,500.75-21.87,3.61-10.67,4.84-31.32-3.38-39.47l-.13-.08Z" fill="#e5e8ea"/><path d="M661.6,293.8c-3.15-2.43-8.51,3.57-11.52,7.26-7.08,8.51-16.71,16.65-28.54,24.05-42.42,26.07-97.36,38.49-149.24,44.19-91.53,10.21-246.09-1.45-305.32-69.14-13.52-17.74-16.78,4.92-16.98,14.69-.18,15.76,5.38,27.98,14.36,40.36,81.5,111.65,446.31,112.28,500.75-21.87,3.61-10.67,4.84-31.32-3.38-39.47l-.13-.08Z" fill="#e5e8ea"/><path d="M661.6,399.68c-3.15-2.43-8.51,3.57-11.52,7.26-7.08,8.51-16.71,16.64-28.54,24.05-42.42,26.07-97.36,38.49-149.24,44.19-91.53,10.21-246.09-1.45-305.32-69.14-13.52-17.74-16.78,4.92-16.98,14.69-.18,15.76,5.38,27.98,14.36,40.36,81.5,111.65,446.31,112.28,500.75-21.87,3.61-10.67,4.84-31.32-3.38-39.47l-.13-.08Z" fill="#e5e8ea"/><path d="M663.55,119.62c0,58.12-113.99,105.24-254.6,105.24s-254.6-47.12-254.6-105.24S268.33,14.37,408.95,14.37s254.6,47.12,254.6,105.24" fill="#e5e8ea"/></g></g></g><g id="Artwork_1-7"><g clip-path="url(#clippath-12)"><g clip-path="url(#clippath-13)"><path d="M1479.49-77.45c-3.15-2.43-8.51,3.57-11.52,7.26-7.08,8.51-16.71,16.65-28.54,24.05-42.42,26.07-97.36,38.49-149.24,44.19-91.53,10.21-246.09-1.45-305.32-69.14-13.52-17.74-16.78,4.92-16.98,14.69-.18,15.76,5.38,27.98,14.36,40.36,81.5,111.65,446.31,112.28,500.75-21.87,3.61-10.67,4.84-31.32-3.38-39.47l-.13-.08Z" fill="#e5e8ea"/><path d="M1479.49,28.43c-3.15-2.43-8.51,3.57-11.52,7.26-7.08,8.51-16.71,16.64-28.54,24.05-42.42,26.07-97.36,38.49-149.24,44.19-91.53,10.21-246.09-1.45-305.32-69.14-13.52-17.74-16.78,4.92-16.98,14.69-.18,15.76,5.38,27.98,14.36,40.36,81.5,111.65,446.31,112.28,500.75-21.87,3.61-10.67,4.84-31.32-3.38-39.47l-.13-.08Z" fill="#e5e8ea"/></g></g></g></pattern></defs><rect width="1439.2" height="915.19" fill="url(#New_Pattern)"/></svg>