<?xml version="1.0" encoding="UTF-8"?>
<svg id="Layer_1" data-name="Layer 1" xmlns="http://www.w3.org/2000/svg" width="517.89" height="528.13" xmlns:xlink="http://www.w3.org/1999/xlink" viewBox="0 0 517.89 528.13">
  <defs>
    <style>
      .cls-1 {
        fill: none;
      }

      .cls-2 {
        fill: #efefef;
      }

      .cls-3 {
        clip-path: url(#clippath-1);
      }

      .cls-4 {
        clip-path: url(#clippath);
      }
    </style>
    <clipPath id="clippath">
      <rect class="cls-1" width="517.89" height="528.13"/>
    </clipPath>
    <clipPath id="clippath-1">
      <rect class="cls-1" width="517.89" height="528.13"/>
    </clipPath>
  </defs>
  <g id="Artwork_1" data-name="Artwork 1">
    <g class="cls-4">
      <g class="cls-3">
        <path class="cls-2" d="M511.6,173.55c-3.15-2.43-8.51,3.57-11.52,7.26-7.08,8.51-16.71,16.65-28.54,24.05-42.42,26.07-97.36,38.49-149.24,44.19-91.53,10.21-246.09-1.45-305.32-69.14C3.46,162.17.21,184.83,0,194.6c-.18,15.76,5.38,27.98,14.36,40.36,81.5,111.65,446.31,112.28,500.75-21.87,3.61-10.67,4.84-31.32-3.38-39.47l-.13-.08Z"/>
        <path class="cls-2" d="M511.6,279.43c-3.15-2.43-8.51,3.57-11.52,7.26-7.08,8.51-16.71,16.65-28.54,24.05-42.42,26.07-97.36,38.49-149.24,44.19-91.53,10.21-246.09-1.45-305.32-69.14C3.46,268.05.21,290.71,0,300.48c-.18,15.76,5.38,27.98,14.36,40.36,81.5,111.65,446.31,112.28,500.75-21.87,3.61-10.67,4.84-31.32-3.38-39.47l-.13-.08Z"/>
        <path class="cls-2" d="M511.6,385.31c-3.15-2.43-8.51,3.57-11.52,7.26-7.08,8.51-16.71,16.64-28.54,24.05-42.42,26.07-97.36,38.49-149.24,44.19-91.53,10.21-246.09-1.45-305.32-69.14C3.46,373.93.21,396.59,0,406.36c-.18,15.76,5.38,27.98,14.36,40.36,81.5,111.65,446.31,112.28,500.75-21.87,3.61-10.67,4.84-31.32-3.38-39.47l-.13-.08Z"/>
        <path class="cls-2" d="M513.55,105.24c0,58.12-113.99,105.24-254.6,105.24S4.35,163.37,4.35,105.24,118.33,0,258.95,0s254.6,47.12,254.6,105.24"/>
      </g>
    </g>
  </g>
</svg>